PathFileType	3	(X/Y/Z)	C:\Users\koon_\Desktop\
DataRate	CameraRate	NumFrames	NumMarkers	Units	OrigDataRate	OrigDataStartFrame	OrigNumFrames
100.0	100.0	7	27	mm	100.0	1241	3309	
Frame#	Time	get:LFHD			get:RFHD			get:LBHD			get:RBHD			get:C7			get:T10			get:CLAV			get:STRN			get:RBAK			get:LSHO			get:LUPA			get:LELB			get:LFRA			get:LWRA			get:LWRB			get:LFIN			get:RSHO			get:RUPA			get:RELB			get:RFRA			get:RWRA			get:RWRB			get:RFIN			get:LASI			get:RASI			get:LPSI			get:RPSI			
		X1	Y1	Z1	X2	Y2	Z2	X3	Y3	Z3	X4	Y4	Z4	X5	Y5	Z5	X6	Y6	Z6	X7	Y7	Z7	X8	Y8	Z8	X9	Y9	Z9	X10	Y10	Z10	X11	Y11	Z11	X12	Y12	Z12	X13	Y13	Z13	X14	Y14	Z14	X15	Y15	Z15	X16	Y16	Z16	X17	Y17	Z17	X18	Y18	Z18	X19	Y19	Z19	X20	Y20	Z20	X21	Y21	Z21	X22	Y22	Z22	X23	Y23	Z23	X24	Y24	Z24	X25	Y25	Z25	X26	Y26	Z26	X27	Y27	Z27	
1241	12.4	87.393051	1562.4003	-63.423954	-53.802841	1561.6927	-59.118004	58.564144	1555.9271	-223.14024	-71.167946	1530.9786	-222.62692	20.524769	1342.406	-217.83131	21.343449	1136.561	-246.79881	-14.639375	1274.7751	-23.162453	-8.5013752	1080.9058	24.616814	-56.607681	1266.5278	-251.13609	112.32404	1359.9945	-119.95605	210.68019	1362.8264	-67.485336	360.88458	1362.0415	44.924038	437.00708	1371.2858	177.45247	501.28049	1340.0406	232.23888	538.51453	1384.4851	170.91397	575.20734	1384.958	270.29486	-117.16564	1340.714	-145.23184	-250.30768	1162.1257	-92.8032	-314.91876	1056.7449	-128.0107	-309.466	1044.5092	-28.933554	-326.51068	911.90277	58.64838	-394.39664	912.16217	13.362183	-386.71201	859.5108	111.2947	125.61266	891.88885	-5.098464	-139.5313	878.84174	-32.80175	55.638161	948.99316	-229.5318	-33.758881	946.42383	-240.62775
1242	12.41	86.969383	1562.73	-62.613613	-54.192532	1562.0354	-58.480728	58.248581	1555.5518	-222.4129	-71.443512	1530.6504	-221.91237	20.298569	1342.5251	-216.54089	21.652802	1136.8036	-245.85933	-15.032846	1274.6825	-22.015236	-9.142045	1080.7047	25.382647	-56.458523	1266.676	-249.8916	112.32478	1359.9274	-119.06165	213.78664	1362.2908	-68.782387	368.93152	1360.381	36.854824	448.11588	1366.6156	167.38982	514.09741	1333.5094	218.79411	548.81415	1381.6776	158.77966	587.98212	1378.8029	256.5325	-117.4249	1340.7955	-144.16978	-250.96037	1162.1388	-92.761269	-315.35834	1056.7319	-128.19743	-310.32355	1044.8226	-29.25252	-327.54724	912.26843	58.556332	-395.33841	912.71619	13.437418	-387.84119	860.06219	111.27997	125.12885	891.74554	-4.4203358	-139.94981	878.8454	-32.842316	55.965572	949.17566	-228.85448	-33.313889	946.66846	-240.3212
1243	12.42	86.627205	1563.0513	-61.924004	-54.53553	1562.37	-57.791958	58.02454	1555.259	-221.69389	-71.699265	1530.271	-221.01494	19.888445	1342.8116	-215.63225	21.806425	1137.0315	-245.08842	-15.228472	1274.52	-21.381182	-9.6228333	1080.5657	26.220528	-56.528774	1266.9977	-248.83914	112.41852	1359.8251	-118.50962	217.27036	1361.6553	-70.93396	375.74228	1358.0468	29.752775	457.25159	1362.316	158.53465	524.75745	1328.2281	206.66135	557.71338	1378.109	147.21747	599.10815	1374.2568	243.28961	-117.7095	1340.8738	-143.07121	-251.70645	1162.1256	-92.569611	-316.09937	1056.9221	-128.38252	-311.15369	1045.1348	-29.3501	-328.31351	912.67224	58.664124	-396.36008	913.26324	13.581647	-388.62622	860.61072	111.53758	124.7171	891.57935	-3.8461709	-140.27513	878.77765	-32.774048	56.270527	949.40582	-228.26364	-33.001781	946.90363	-239.96318
1244	12.43	86.332642	1563.3608	-61.141022	-54.823784	1562.5946	-57.023354	57.806358	1555.0094	-220.86411	-71.924858	1530.0132	-220.30888	19.159725	1343.0137	-214.50029	21.781624	1137.2579	-244.41885	-15.20941	1274.4025	-20.811934	-9.9111586	1080.4153	26.986626	-56.775906	1267.4611	-247.94254	112.5051	1359.6941	-118.24054	220.57101	1360.9486	-73.387245	381.07819	1356.2122	22.908121	465.10153	1358.8604	149.65211	533.31555	1324.7141	196.5755	565.53131	1373.9785	136.0843	608.91516	1370.3682	231.29652	-117.94636	1340.8281	-141.66328	-252.45705	1162.0452	-92.186081	-317.07208	1057.1935	-128.34821	-311.96121	1045.4382	-29.295336	-328.8606	913.05072	58.937302	-397.15729	913.80548	14.126317	-389.13535	861.30035	112.09502	124.45345	891.48212	-3.3390501	-140.52727	878.72034	-32.516415	56.478973	949.58582	-227.74387	-32.765152	947.14117	-239.61902
1245	12.44	86.056465	1563.6204	-60.379929	-55.071033	1562.682	-56.279678	57.644455	1554.8622	-220.02922	-72.086174	1529.702	-219.46242	18.496166	1343.3406	-213.73601	21.535625	1137.4596	-243.9402	-15.018857	1274.2639	-20.346378	-9.9343596	1080.2756	27.584295	-57.243916	1267.8075	-246.86443	112.60526	1359.5315	-118.16422	222.90282	1360.3529	-75.990784	384.86719	1354.0115	16.310274	472.02032	1356.1565	141.20277	540.5813	1321.7424	187.37788	572.38849	1369.6226	125.6679	617.1701	1366.5271	220.52667	-118.13432	1340.8259	-140.40115	-253.23962	1162.079	-91.486397	-318.03384	1057.5305	-128.08568	-312.67426	1045.7861	-29.009256	-329.14526	913.51868	59.305656	-397.7016	914.37903	14.865863	-389.29602	862.06732	112.83488	124.36226	891.38226	-2.9529977	-140.66666	878.617	-32.131737	56.562183	949.77136	-227.38029	-32.739281	947.23615	-239.07269
1246	12.45	85.835335	1563.8433	-59.456665	-55.304394	1562.6249	-55.564991	57.458225	1554.8088	-219.26581	-72.177818	1529.4307	-218.69255	17.901442	1343.9458	-213.47343	21.045179	1137.6133	-243.55894	-14.62515	1274.1224	-20.047205	-9.6745644	1080.1718	28.259218	-57.870693	1268.1925	-246.2032	112.64817	1359.4209	-118.3292	224.05495	1359.9224	-78.370422	387.67181	1351.9248	10.437619	477.64395	1353.1997	133.73805	546.64502	1318.4332	179.22104	578.02075	1365.5288	116.80186	624.14075	1362.4287	211.1839	-118.23161	1340.7142	-138.94481	-253.80737	1162.1895	-90.740036	-318.98376	1058.0023	-127.51739	-313.22205	1046.2551	-28.515255	-329.25711	914.15424	59.861485	-398.1275	915.15533	15.985608	-389.15189	862.98816	113.90549	124.41322	891.31067	-2.7490366	-140.61397	878.52985	-31.458054	56.456615	949.89874	-226.98254	-32.930275	947.23157	-238.41339
1247	12.46	85.690178	1563.9965	-58.59528	-55.49781	1562.519	-54.700073	57.36832	1554.853	-218.37061	-72.212059	1529.1575	-217.73827	17.375	1344.2506	-213.1026	20.325222	1137.6366	-243.32181	-14.038586	1273.9967	-19.808882	-9.0755148	1080.1259	28.842125	-58.598442	1268.3789	-245.63602	112.6287	1359.3354	-118.67168	224.16289	1359.4792	-80.210983	390.00772	1350.5233	5.4490066	482.17953	1349.8972	127.48386	551.77472	1314.8328	171.59676	582.57294	1361.7894	109.33929	629.77246	1358.1233	202.97824	-118.10577	1340.6948	-137.89075	-254.16843	1162.447	-89.770966	-319.82669	1058.6892	-126.86054	-313.49857	1046.8434	-27.818876	-329.24118	914.84131	60.53334	-398.38538	916.11102	17.375351	-388.72202	864.11053	115.19812	124.68355	891.27289	-2.6629281	-140.39325	878.44073	-30.672812	56.201809	949.99561	-226.80913	-33.224464	947.32593	-237.97224
